<?xml version="1.0" standalone="no"?>
<!DOCTYPE svg PUBLIC "-//W3C//DTD SVG 20010904//EN"
 "http://www.w3.org/TR/2001/REC-SVG-20010904/DTD/svg10.dtd">
<svg version="1.0" xmlns="http://www.w3.org/2000/svg"
 width="512.000000pt" height="512.000000pt" viewBox="0 0 512.000000 512.000000"
 preserveAspectRatio="xMidYMid meet">
<metadata>
Created by potrace 1.11, written by Peter Selinger 2001-2013
</metadata>
<g transform="translate(0.000000,512.000000) scale(0.100000,-0.100000)"
fill="#000000" stroke="none">
<path d="M0 2560 l0 -2560 2560 0 2560 0 0 2560 0 2560 -2560 0 -2560 0 0
-2560z m2765 1710 c294 -33 462 -84 735 -222 118 -60 128 -75 92 -145 -11 -21
-24 -49 -30 -63 -6 -14 -29 -65 -51 -113 -23 -49 -41 -91 -41 -95 0 -4 -16
-38 -35 -77 -19 -38 -35 -77 -35 -86 0 -9 -6 -22 -14 -28 -8 -7 -17 -23 -20
-36 -3 -13 -16 -29 -27 -36 -17 -9 -27 -6 -60 18 -21 15 -52 35 -69 44 -16 9
-36 21 -43 28 -26 21 -216 111 -235 111 -11 0 -37 7 -57 16 -29 12 -65 15
-149 12 -103 -3 -116 -5 -179 -37 -84 -42 -171 -132 -188 -194 -6 -24 -8 -65
-5 -97 6 -50 12 -60 64 -113 59 -60 141 -111 202 -127 19 -5 78 -23 130 -40
96 -31 142 -45 260 -75 150 -39 209 -59 280 -93 41 -19 77 -38 80 -41 3 -3 25
-19 50 -36 147 -98 277 -309 331 -536 17 -75 20 -111 16 -246 -4 -173 -28
-300 -76 -408 -5 -11 -20 -45 -34 -75 -66 -151 -222 -347 -337 -425 -25 -16
-47 -32 -50 -35 -22 -23 -202 -94 -315 -124 -190 -49 -461 -70 -600 -46 -38 6
-97 16 -130 21 -59 9 -75 13 -225 59 -75 23 -281 115 -290 130 -3 4 -16 11
-29 15 -31 10 -203 128 -268 184 -29 26 -53 53 -53 62 0 9 11 33 25 53 14 20
25 40 25 45 0 4 9 16 20 26 11 10 20 23 20 29 0 5 21 42 47 80 26 39 55 83 63
98 8 15 36 60 61 100 25 40 62 100 83 133 20 33 43 63 52 68 12 7 37 -12 107
-80 51 -48 96 -93 102 -99 32 -35 169 -134 225 -161 100 -48 136 -59 250 -77
131 -20 141 -20 217 4 168 52 255 136 282 268 10 51 10 75 0 120 -18 80 -48
123 -126 181 -38 28 -75 57 -84 66 -9 8 -20 15 -24 15 -5 0 -36 13 -69 29 -55
26 -101 42 -261 86 -27 8 -66 17 -85 21 -19 3 -39 10 -45 14 -5 4 -25 11 -43
15 -18 4 -45 13 -60 21 -15 8 -31 14 -37 14 -18 0 -218 104 -278 144 -72 48
-159 143 -201 221 -31 55 -43 86 -90 230 -20 63 -32 289 -18 365 30 174 94
349 148 411 8 8 14 19 14 23 0 29 171 218 255 283 39 30 158 95 220 120 178
73 413 105 610 83z"/>
</g>
</svg>
